<svg xmlns="http://www.w3.org/2000/svg" width="180" height="32" viewBox="0 0 47.625 8.467"><g font-weight="700" font-family="MagistralC" letter-spacing="0" word-spacing="0" fill="#43413d" stroke="#43413d"><g style="line-height:.80000001" aria-label="Уральские" font-size="9.447" stroke-width=".236" text-anchor="middle"><path style="line-height:.80000001;-inkscape-font-specification:'MagistralC Bold';text-align:center" d="M90.13 60.813l3.468-6.613h-1.36l-2.013 4.005-2.088-4.005h-1.379l2.825 5.148-.803 1.465zM94.52 60.813h1.397c.51 0 1.285-.038 1.757-.718.36-.51.397-1.228.397-1.89 0-.548-.019-1.322-.529-1.851-.482-.501-1.152-.548-1.474-.548h-1.747c-.19 0-.435.019-.624.16a.743.743 0 0 0-.283.614v5.839h1.105zm0-.85v-3.07a.23.23 0 0 1 .075-.17c.038-.03.104-.067.15-.067h1.087c.492 0 .822.246.964.567.057.132.132.397.132 1.077 0 .746-.104 1.048-.208 1.2-.122.198-.396.462-.944.462zM98.927 55.806v.85h2.466c.17 0 .387.028.538.217.123.151.142.321.142.473v.35H99.9c-.264 0-.604.018-.916.292-.378.33-.425.775-.425 1.219 0 .368.028 1.01.434 1.36.284.246.633.246.907.246h2.39c.236 0 .51-.02.69-.199.18-.18.198-.463.198-.642v-2.598c0-.557-.16-.964-.368-1.18-.227-.237-.614-.388-1.04-.388zm3.146 2.74v1.152c0 .076 0 .142-.076.208-.075.056-.18.056-.245.056h-1.54a.547.547 0 0 1-.36-.15c-.131-.142-.15-.407-.15-.558 0-.36.085-.491.123-.539.122-.16.33-.17.406-.17zM103.274 60.813h1.134l1.54-3.864c.019-.047.047-.142.094-.142s.076.095.095.142l1.54 3.864h1.133l-2.03-4.648c-.133-.293-.435-.416-.738-.416-.302 0-.604.123-.737.416zM109.098 55.806v4.242c0 .198 0 .406.188.585.18.17.388.18.558.18h2.541c.312 0 .68-.01.964-.265.359-.321.378-.907.378-1.237 0-.397-.029-.879-.331-1.228-.274-.312-.624-.378-.935-.378h-2.258v-1.9zm1.105 2.749h1.795c.123 0 .321.01.453.16.142.152.133.388.133.53 0 .179-.01.415-.133.557-.132.151-.33.16-.491.16h-1.445c-.085 0-.18-.009-.246-.075-.076-.076-.066-.198-.066-.274zM118.579 60.813v-.85h-1.795c-.463 0-1.01-.048-1.256-.53-.133-.264-.161-.746-.161-1.039 0-.15.009-.68.085-.944.123-.426.482-.794 1.228-.794h1.786v-.85h-2.145c-.897 0-1.322.33-1.53.538-.558.577-.567 1.436-.567 2.031 0 .709.038 1.332.453 1.824.454.538 1.115.614 1.493.614zM120.314 60.813v-5.007h-1.105v5.007zm3.656 0l-2.135-2.23c-.075-.075-.18-.245-.18-.35 0-.16.152-.32.237-.406l1.899-2.021h-1.313l-1.597 1.776c-.142.16-.35.397-.35.652s.17.463.284.585l1.823 1.994zM128.965 60.813v-4.299c0-.746-.577-.765-.728-.765-.226 0-.482.057-.68.34l-2.23 3.278c-.037.057-.075.133-.132.133-.075 0-.075-.048-.075-.133l.047-3.561h-1.105v4.355c0 .264.075.708.727.708.378 0 .538-.132.718-.396l2.201-3.222c.076-.113.114-.132.132-.132.076 0 .057.057.057.132l-.038 3.562zM134.26 60.813v-.85h-2.446c-.406 0-.87-.057-1.01-.596a3.633 3.633 0 0 1-.067-.69h2.91c.198 0 .387-.037.538-.188.208-.208.236-.501.236-.756 0-.633-.122-1.257-.708-1.625-.463-.293-1.068-.321-1.653-.321-.473 0-1.323 0-1.87.472-.549.473-.596 1.162-.596 2.097 0 .662.028 1.351.359 1.824.416.585 1.02.633 1.53.633zm-3.523-2.986c.009-.33 0-.604.227-.86.302-.34.756-.33 1.048-.33.312 0 .671.019.945.227.16.123.321.359.321.67 0 .133-.028.293-.245.293z" transform="matrix(.53743 0 0 .37504 -27.285 -18.814)"/></g><g style="line-height:1.25" aria-label="локомотивы" font-size="9.466" stroke-width=".237"><path style="-inkscape-font-specification:'MagistralC Bold'" d="M82.534 67.925h1.136l1.543-3.872c.02-.047.048-.142.095-.142s.076.095.095.142l1.542 3.872h1.136l-2.035-4.658c-.132-.293-.435-.416-.738-.416s-.606.123-.738.416zM90.629 62.85c-.597 0-1.477.02-2.026.531-.577.54-.644 1.486-.644 2.054 0 .511.048 1.458.644 2.007.549.502 1.43.54 2.026.54.577 0 1.486-.038 2.025-.54.37-.35.644-.985.644-2.045 0-.53-.066-1.476-.644-2.016-.549-.511-1.429-.53-2.025-.53zm-1.524 2.576c0-.322 0-.966.312-1.326.312-.36.852-.397 1.212-.397.397 0 .88.038 1.202.397.35.389.322.957.322 1.326 0 .435 0 .918-.332 1.287-.33.37-.776.417-1.192.417-.398 0-.88-.048-1.202-.417-.313-.36-.322-.87-.322-1.287zM95.023 67.925v-5.017h-1.107v5.017zm3.663 0l-2.139-2.234c-.076-.076-.18-.246-.18-.35 0-.161.152-.322.237-.408l1.903-2.025H97.19l-1.6 1.78c-.142.16-.35.397-.35.652 0 .256.17.464.284.587l1.827 1.998zM101.315 62.85c-.597 0-1.477.02-2.026.531-.577.54-.644 1.486-.644 2.054 0 .511.048 1.458.644 2.007.55.502 1.43.54 2.026.54.577 0 1.486-.038 2.026-.54.369-.35.643-.985.643-2.045 0-.53-.066-1.476-.643-2.016-.55-.511-1.43-.53-2.026-.53zm-1.524 2.576c0-.322 0-.966.312-1.326.313-.36.852-.397 1.212-.397.397 0 .88.038 1.202.397.35.389.322.957.322 1.326 0 .435 0 .918-.331 1.287-.332.37-.777.417-1.193.417-.398 0-.88-.048-1.202-.417-.313-.36-.322-.87-.322-1.287zM109.647 64.309c.019-.038.057-.114.085-.114.02 0 .057.038.057.095l-.047 3.635h1.107V63.57c0-.492-.407-.719-.861-.719-.417 0-.691.132-.852.54l-1.269 3.19c-.018.047-.094.198-.142.198-.047 0-.123-.151-.141-.198l-1.269-3.19c-.16-.408-.435-.54-.852-.54-.454 0-.861.227-.861.72v4.354h1.107l-.047-3.635c0-.029 0-.085.057-.085.038 0 .066.075.075.104l1.288 3.256c.076.199.246.416.644.416.397 0 .567-.217.643-.416zM114.146 62.85c-.597 0-1.477.02-2.026.531-.578.54-.644 1.486-.644 2.054 0 .511.047 1.458.644 2.007.549.502 1.43.54 2.026.54.577 0 1.486-.038 2.025-.54.37-.35.644-.985.644-2.045 0-.53-.066-1.476-.644-2.016-.549-.511-1.43-.53-2.025-.53zm-1.524 2.576c0-.322 0-.966.312-1.326.312-.36.852-.397 1.212-.397.397 0 .88.038 1.202.397.35.389.322.957.322 1.326 0 .435 0 .918-.332 1.287-.331.37-.776.417-1.192.417-.398 0-.88-.048-1.203-.417-.312-.36-.321-.87-.321-1.287zM120.045 67.925V63.76h1.884v-.852h-4.875v.852h1.884v4.165zM127.226 67.925v-4.307c0-.748-.577-.767-.729-.767-.227 0-.483.057-.681.34l-2.234 3.285c-.038.057-.076.133-.133.133-.076 0-.076-.047-.076-.133l.048-3.568h-1.108v4.364c0 .265.076.71.73.71.378 0 .539-.133.719-.398l2.205-3.228c.076-.114.114-.132.133-.132.075 0 .056.056.056.132l-.037 3.569zM127.99 67.186c0 .161.018.407.188.559.17.16.455.18.663.18h2.385c.294 0 .71-.01 1.013-.313.322-.322.341-.842.341-1.107s-.019-.587-.218-.833a.967.967 0 0 0-.624-.332v-.018a.945.945 0 0 0 .596-.294c.199-.227.227-.568.227-.833 0-.237-.019-.644-.265-.928-.312-.35-.795-.36-1.136-.36h-2.272c-.217 0-.463.02-.672.2-.208.18-.227.407-.227.586zm1.107-2.281v-.9c0-.056 0-.132.066-.189.066-.056.142-.056.208-.056h1.458c.151 0 .312.01.435.123.142.123.152.303.152.454 0 .133-.02.294-.142.417-.133.132-.322.151-.464.151zm0 .852h1.732c.123 0 .331.01.473.16.123.133.133.323.133.474 0 .161-.01.388-.152.53-.132.133-.35.152-.51.152h-1.383c-.085 0-.17 0-.237-.076a.45.45 0 0 1-.056-.227zM133.203 62.908v4.25c0 .199 0 .407.19.587.179.17.387.18.558.18h2.546c.312 0 .681-.01.965-.265.36-.322.379-.91.379-1.24 0-.398-.028-.88-.331-1.231-.275-.312-.625-.379-.937-.379h-2.263v-1.902zm5.234 5.017h1.108v-5.017h-1.108zm-4.127-2.263h1.799c.123 0 .322.01.454.161.142.152.133.388.133.53 0 .18-.01.417-.133.559-.132.151-.331.16-.492.16h-1.448c-.086 0-.18-.009-.246-.075-.076-.076-.067-.199-.067-.275z" transform="matrix(.53636 0 0 .37578 -27.285 -18.593)"/></g></g><path d="M12.135 6.861a3.99 3.99 0 0 1-3.209 1.606h-.64a3.99 3.99 0 0 1-3.21-1.606l-.616-.833h.383c.817 0 1.585-.384 2.065-1.033l2.333-3.152A4.58 4.58 0 0 1 12.924 0h4.288z" fill="#43413d"/><path d="M2.965 4.007L2.13 2.88h5.577l-.835 1.128a2.443 2.443 0 0 1-3.906 0M3.223 2.1h5.06l.455-.616A5.345 5.345 0 0 1 10.416 0H0l.572.774A3.296 3.296 0 0 0 3.223 2.1" fill="#03929d"/></svg>